<?xml version="1.0" standalone="no"?>
<!DOCTYPE svg PUBLIC "-//W3C//DTD SVG 20010904//EN"
 "http://www.w3.org/TR/2001/REC-SVG-20010904/DTD/svg10.dtd">
<svg version="1.0" xmlns="http://www.w3.org/2000/svg"
 width="754.000000pt" height="754.000000pt" viewBox="0 0 754.000000 754.000000"
 preserveAspectRatio="xMidYMid meet">
<metadata>
Created by potrace 1.14, written by Peter Selinger 2001-2017
</metadata>
<g transform="translate(0.000000,754.000000) scale(0.100000,-0.100000)"
fill="#000000" stroke="none">
<path d="M3539 7130 c-19 -10 -62 -20 -96 -24 -70 -7 -191 -44 -262 -81 -27
-13 -127 -75 -222 -138 -96 -62 -248 -162 -339 -222 -91 -59 -223 -146 -295
-193 -71 -47 -209 -137 -305 -200 -187 -123 -349 -229 -630 -414 -192 -126
-274 -195 -348 -296 -80 -109 -142 -258 -159 -382 -8 -66 -9 -2764 0 -2832 8
-66 62 -222 99 -288 83 -145 174 -235 373 -365 336 -221 497 -326 595 -391 58
-38 112 -73 121 -79 9 -5 29 -19 45 -30 16 -10 88 -57 159 -104 72 -46 229
-150 350 -229 433 -285 527 -344 591 -373 73 -33 147 -54 226 -64 29 -4 71
-15 94 -25 39 -17 42 -17 64 0 13 10 38 18 54 18 44 0 151 26 232 57 81 30
114 50 424 253 129 85 271 178 315 207 142 92 390 255 405 265 8 6 121 80 250
164 634 415 654 430 731 506 42 41 88 95 103 119 77 122 130 260 143 374 4 34
7 628 7 1320 l1 1259 -37 34 c-21 19 -47 34 -58 34 -20 0 -20 5 -18 202 l3
202 235 168 c129 92 243 179 254 193 39 54 24 143 -33 192 -28 25 -96 39 -133
28 -12 -5 -106 -67 -208 -139 -102 -73 -199 -142 -217 -154 l-31 -22 -59 38
c-32 22 -125 83 -208 137 -82 54 -220 144 -305 200 -198 130 -395 259 -640
420 -173 113 -368 241 -685 450 -172 113 -300 167 -435 181 -30 4 -69 14 -86
24 -29 16 -32 16 -65 0z"/>
</g>
</svg>
